:SAMPLES-PER-SECOND 30
:FULLY-SPECIFIED
:DEGREES
353
root  -38.1237 34.5015 10.3375 -177.464 52.21 176.712
RightUpLeg  -22.3994 -33.5364 1.50856
RightLeg  18.3472 -11.3711 -2.9513
RightFoot  6.79756 0.105838 -1.1692
RightToes  -18.0528 -0.0694421 -0.160087
Spine  0.0109979 0.149202 0.431915
Spine1  0.0963544 0.471532 1.54987
HEad  -68.0543 1.13032 2.81595
LeftShoulder1  -1.94126e-019 -3.10601e-018 -2.51263e-017
LeftArm  16.6426 17.4126 -74.0424
LeftForeArm  102.473 -77.6184 -118.794
LeftHand  0.0676964 2.09245 -2.8473
RightShoulder  -4.96962e-017 0 -2.36833e-017
RightArm  15.6999 -21.1726 67.2239
RightForeArm  148.373 79.1928 124.206
RightHand  -0.273451 0.842813 -5.19859
LeftUpLeg  -8.15803 11.1969 -3.71136
LeftLeg  17.4241 22.9793 5.45144
LeftFoot  -4.5515 -0.0783734 -1.81037
LeftToes  -8.49304 1.49739e-006 1.00523e-007
354
root  -38.5837 34.4654 10.2475 -178.435 50.483 175.426
RightUpLeg  -23.933 -36.0324 0.474858
RightLeg  20.2233 -10.4812 -3.09152
RightFoot  6.81373 0.0988553 -1.07163
RightToes  -18.1657 -0.0714712 -0.161913
Spine  0.201512 0.348885 -0.0122619
Spine1  0.479824 0.891687 0.644592
HEad  -69.1818 -0.508932 2.70087
LeftShoulder1  -1.94126e-019 -3.10601e-018 -2.51263e-017
LeftArm  18.1217 16.4956 -72.6213
LeftForeArm  108.647 -76.7771 -124.985
LeftHand  0.0599852 2.02166 -2.5003
RightShoulder  -4.96962e-017 0 -2.36833e-017
RightArm  16.7792 -21.0857 67.7538
RightForeArm  150.962 78.8184 126.96
RightHand  -0.270954 0.196833 -5.68335
LeftUpLeg  -8.55473 11.1646 -5.15372
LeftLeg  16.8345 21.5383 4.90105
LeftFoot  -4.52183 -0.0717142 -1.6547
LeftToes  -8.64008 1.49739e-006 1.00523e-007
355
root  -38.9928 34.4563 10.1876 -178.416 48.1788 175.195
RightUpLeg  -24.6895 -39.0293 0.140981
RightLeg  20.5189 -9.69242 -2.91617
RightFoot  7.34826 0.10631 -1.07031
RightToes  -18.8853 -0.0753322 -0.1678
Spine  0.248312 0.467545 -0.229756
Spine1  0.569807 1.14067 0.201412
HEad  -69.6965 -2.30043 2.38453
LeftShoulder1  -1.94126e-019 -3.10601e-018 -2.51263e-017
LeftArm  20.4006 15.2557 -71.425
LeftForeArm  115.163 -76.2863 -128.737
LeftHand  0.0501051 1.67997 -1.88861
RightShoulder  -4.96962e-017 0 -2.36833e-017
RightArm  17.247 -21.5551 67.6833
RightForeArm  151.142 78.4672 128.733
RightHand  -0.268354 -0.0305645 -5.84487
LeftUpLeg  -9.15782 9.62721 -5.95303
LeftLeg  16.6335 20.7857 4.66356
LeftFoot  -4.69445 -0.0742701 -1.6502
LeftToes  -8.90149 1.49739e-006 1.00523e-007
356
root  -39.333 34.492 10.1452 -177.974 45.9579 175.394
RightUpLeg  -24.5876 -41.3319 0.0731094
RightLeg  19.317 -9.53198 -2.65251
RightFoot  8.34279 0.13133 -1.21535
RightToes  -19.9989 -0.0814528 -0.176814
Spine  0.152096 0.528609 -0.232108
Spine1  0.376966 1.26272 0.198467
HEad  -69.3923 -3.88024 1.67691
LeftShoulder1  -1.94126e-019 -3.10601e-018 -2.51263e-017
LeftArm  21.5115 14.6623 -70.9413
LeftForeArm  116.315 -76.1052 -129.74
LeftHand  0.0554568 1.60645 -2.00543
RightShoulder  -4.96962e-017 0 -2.36833e-017
RightArm  17.9069 -22.1652 67.0249
RightForeArm  151.559 78.2186 129.984
RightHand  -0.290509 -0.236762 -6.55887
LeftUpLeg  -9.43889 8.11531 -6.36812
LeftLeg  15.8442 20.2327 4.2605
LeftFoot  -4.72619 -0.0729127 -1.60513
LeftToes  -10.2816 1.49739e-006 1.00523e-007
357
root  -39.6124 34.5632 10.1145 -177.393 44.2008 175.649
RightUpLeg  -23.7741 -41.9552 -0.0368226
RightLeg  16.9142 -10.6914 -2.49533
RightFoot  9.67231 0.188025 -1.62948
RightToes  -21.0415 -0.0873402 -0.185143
Spine  0.0394915 0.658334 -0.325692
Spine1  0.152514 1.52371 0.0127719
HEad  -69.1644 -4.89318 1.73576
LeftShoulder1  -1.94126e-019 -3.10601e-018 -2.51263e-017
LeftArm  21.8799 14.3768 -70.5569
LeftForeArm  115.334 -75.9481 -130.136
LeftHand  0.0734522 1.68978 -2.64149
RightShoulder  -4.96962e-017 0 -2.36833e-017
RightArm  18.1329 -22.6191 66.7815
RightForeArm  150.104 78.1885 129.742
RightHand  -0.285357 -0.341349 -6.56482
LeftUpLeg  -9.38712 7.41335 -6.6239
LeftLeg  14.3092 19.4595 3.57501
LeftFoot  -4.56017 -0.0647345 -1.46416
LeftToes  -11.9346 1.49739e-006 1.00523e-007
358
root  -39.8236 34.6496 10.1016 -176.454 42.6999 176.221
RightUpLeg  -22.3735 -41.1634 0.0298566
RightLeg  13.4903 -12.9517 -2.21427
RightFoot  11.1601 0.288082 -2.34206
RightToes  -21.2314 -0.0884293 -0.186649
Spine  -0.145936 0.629608 -0.337466
Spine1  -0.215895 1.46516 -0.00521625
HEad  -69.0633 -5.06576 2.04273
LeftShoulder1  -1.94126e-019 -3.10601e-018 -2.51263e-017
LeftArm  21.6668 15.1434 -70.3797
LeftForeArm  116.148 -75.5661 -131.75
LeftHand  0.073324 1.7461 -2.68941
RightShoulder  -4.96962e-017 0 -2.36833e-017
RightArm  18.7123 -22.5983 66.6307
RightForeArm  148.939 78.254 129.138
RightHand  -0.260447 -0.229876 -5.87107
LeftUpLeg  -9.37905 6.91372 -6.52821
LeftLeg  12.7527 18.6431 2.91993
LeftFoot  -4.53085 -0.060772 -1.37455
LeftToes  -13.6009 1.49739e-006 1.00523e-007
359
root  -39.9894 34.7256 10.066 -175.802 41.4301 176.563
RightUpLeg  -20.432 -39.4099 -0.37546
RightLeg  9.62205 -14.0172 -1.43784
RightFoot  12.8037 0.39868 -2.9397
RightToes  -22.2816 -0.0945393 -0.194909
Spine  -0.266311 0.545636 -0.454938
Spine1  -0.462591 1.28977 -0.232173
HEad  -69.3483 -4.81443 2.55102
LeftShoulder1  -1.94126e-019 -3.10601e-018 -2.51263e-017
LeftArm  21.1724 16.4901 -69.9766
LeftForeArm  118.135 -74.7796 -134.831
LeftHand  0.0771852 1.68792 -2.759
RightShoulder  -4.96962e-017 0 -2.36833e-017
RightArm  19.3367 -22.1354 66.836
RightForeArm  150.082 78.3198 129.132
RightHand  -0.208147 0.280829 -4.31596
LeftUpLeg  -9.12001 6.11379 -6.52673
LeftLeg  11.124 18.1612 2.33001
LeftFoot  -4.30192 -0.0530827 -1.25168
LeftToes  -14.9906 1.49739e-006 1.00523e-007
360
root  -40.1317 34.7721 10.0328 -175.24 40.4522 176.827
RightUpLeg  -18.6293 -36.646 -0.932407
RightLeg  6.11813 -11.8989 -0.498022
RightFoot  14.4221 0.427886 -2.78008
RightToes  -24.2316 -0.106283 -0.209945
Spine  -0.378843 0.476659 -0.567195
Spine1  -0.694263 1.13188 -0.441358
HEad  -70.0449 -4.52553 3.1421
LeftShoulder1  -1.94126e-019 -3.10601e-018 -2.51263e-017
LeftArm  20.3485 18.3306 -69.5912
LeftForeArm  120.631 -73.8213 -138.129
LeftHand  0.107811 1.32947 -3.3409
RightShoulder  -4.96962e-017 0 -2.36833e-017
RightArm  19.8671 -21.5016 67.3013
RightForeArm  152.045 78.4712 128.936
RightHand  -0.154974 1.26104 -2.83418
LeftUpLeg  -8.98131 5.86112 -6.52304
LeftLeg  9.8796 17.4494 1.86378
LeftFoot  -4.10557 -0.046242 -1.12851
LeftToes  -17.0691 1.49739e-006 1.00523e-007
361
root  -40.2721 34.7862 10.0242 -174.699 39.8808 176.998
RightUpLeg  -17.1733 -31.4035 -1.80963
RightLeg  3.35157 -8.67482 0.052594
RightFoot  15.642 0.375606 -2.15097
RightToes  -25.1376 -0.111911 -0.216792
Spine  -0.469687 0.480704 -0.706239
Spine1  -0.882399 1.11285 -0.701911
HEad  -71.5782 -3.78776 3.96887
LeftShoulder1  -1.94126e-019 -3.10601e-018 -2.51263e-017
LeftArm  19.7093 20.3176 -68.9959
LeftForeArm  123.746 -72.8643 -141.109
LeftHand  0.132529 1.00546 -3.7033
RightShoulder  -4.96962e-017 0 -2.36833e-017
RightArm  19.819 -20.8921 68.1874
RightForeArm  153.385 78.8032 127.676
RightHand  -0.105359 2.66144 -1.72993
LeftUpLeg  -9.30227 6.40496 -6.58132
LeftLeg  9.36271 16.251 1.59332
LeftFoot  -3.77907 -0.0362989 -0.938696
LeftToes  -19.2201 1.49739e-006 1.00523e-007
362
root  -40.4291 34.7761 10.0413 -174.157 39.6556 176.987
RightUpLeg  -16.5997 -24.3641 -2.9868
RightLeg  1.96286 -6.32962 0.191249
RightFoot  16.2318 0.307759 -1.58761
RightToes  -24.8044 -0.113105 -0.218249
Spine  -0.511768 0.554977 -0.961468
Spine1  -0.972874 1.24749 -1.17026
HEad  -73.851 -2.64449 4.71968
LeftShoulder1  -1.94126e-019 -3.10601e-018 -2.51263e-017
LeftArm  18.8201 22.3978 -68.2092
LeftForeArm  126.622 -71.956 -143.597
LeftHand  0.153635 0.920039 -4.17331
RightShoulder  -4.96962e-017 0 -2.36833e-017
RightArm  19.0377 -20.5398 69.5242
RightForeArm  156.443 79.1556 126.692
RightHand  -0.0749063 3.95407 -1.19764
LeftUpLeg  -10.1153 6.81959 -6.82682
LeftLeg  9.45073 15.4376 1.53917
LeftFoot  -3.20305 -0.024691 -0.721543
LeftToes  -20.2503 1.49739e-006 1.00523e-007
363
root  -40.5826 34.7571 10.0632 -173.794 39.6655 176.83
RightUpLeg  -17.0011 -18.4656 -4.08354
RightLeg  2.04729 -5.068 0.145769
RightFoot  16.0979 0.253522 -1.22931
RightToes  -23.998 -0.112364 -0.217355
Spine  -0.464519 0.716105 -1.23896
Spine1  -0.893338 1.55182 -1.7315
HEad  -76.0512 -1.64642 4.82879
LeftShoulder1  -1.94126e-019 -3.10601e-018 -2.51263e-017
LeftArm  17.9217 24.3153 -67.2536
LeftForeArm  128.917 -71.2407 -145.382
LeftHand  0.168558 0.759366 -4.38118
RightShoulder  -4.96962e-017 0 -2.36833e-017
RightArm  18.1599 -20.3161 70.7693
RightForeArm  159.653 79.3824 126.351
RightHand  -0.0999463 4.66168 -1.44598
LeftUpLeg  -10.9071 6.85857 -7.18907
LeftLeg  9.69119 15.2048 1.58016
LeftFoot  -2.90251 -0.0199631 -0.626419
LeftToes  -19.8962 1.49739e-006 1.00523e-007
364
root  -40.7024 34.7356 10.078 -173.588 39.738 176.84
RightUpLeg  -18.0393 -14.6496 -4.85778
RightLeg  3.65526 -4.76918 0.0037689
RightFoot  15.5413 0.227183 -1.10313
RightToes  -24.2947 -0.110893 -0.215573
Spine  -0.31856 0.858792 -1.41321
Spine1  -0.621855 1.82591 -2.10316
HEad  -77.6869 -0.838373 4.38278
LeftShoulder1  -1.94126e-019 -3.10601e-018 -2.51263e-017
LeftArm  16.5931 26.2039 -66.4655
LeftForeArm  130.775 -70.7171 -146.627
LeftHand  0.174723 0.562681 -4.32247
RightShoulder  -4.96962e-017 0 -2.36833e-017
RightArm  17.7132 -19.9061 71.4412
RightForeArm  160.32 79.4733 126.037
RightHand  -0.101992 4.57956 -1.47659
LeftUpLeg  -11.4408 6.97996 -7.35948
LeftLeg  10.0903 15.0733 1.67168
LeftFoot  -3.06793 -0.0186982 -0.664805
LeftToes  -19.9588 1.49739e-006 1.00523e-007
365
root  -40.7991 34.7096 10.0873 -173.403 39.8426 176.772
RightUpLeg  -19.8533 -12.8727 -5.30621
RightLeg  6.60115 -4.58552 -0.231793
RightFoot  14.0592 0.185207 -0.941689
RightToes  -24.8151 -0.109895 -0.214365
Spine  -0.261728 1.01411 -1.58269
Spine1  -0.525383 2.12902 -2.44166
HEad  -78.6664 -0.608475 3.72123
LeftShoulder1  -1.94126e-019 -3.10601e-018 -2.51263e-017
LeftArm  14.9818 28.1659 -65.7617
LeftForeArm  131.315 -70.2119 -147.594
LeftHand  0.183187 0.428863 -4.38608
RightShoulder  -4.96962e-017 0 -2.36833e-017
RightArm  17.7004 -19.6556 71.6434
RightForeArm  159.711 79.5088 125.672
RightHand  -0.117478 4.20246 -1.69763
LeftUpLeg  -12.0128 7.48371 -7.57697
LeftLeg  10.5458 14.5974 1.73625
LeftFoot  -3.1376 -0.0224186 -0.657011
LeftToes  -20.6148 1.49739e-006 1.00523e-007
